<svg width="195" height="37" viewBox="0 0 424 130" fill="none" xmlns="http://www.w3.org/2000/svg">
    
    <path fill="#25CB9E" d="M39.8,68.3c9.1,6.5,18.3,13,27.4,19.5c0.1,0.1,0.2,0.2,0.4,0.1c0-0.1,0-0.2,0-0.3c0-7.2,0-14.3,0-21.5 c0-0.4-0.2-0.6-0.4-0.8c-2.6-1.9-5.3-3.7-7.9-5.6c-1.2-0.8-2.4-1.7-3.6-2.6c4.3-2.8,8.5-5.5,12.7-8.3C49.9,35.7,31.5,22.6,13,9.3 c0,0.9,0,1.7,0,2.6c0,6.4,0,12.8,0,19.2c0,0.4,0.1,0.7,0.5,0.9c1.1,0.8,2.2,1.6,3.3,2.4C24,39.6,31.4,44.8,38.6,50 c3.3,2.3,6.6,4.7,9.9,7.1c-0.2,0.2-0.4,0.3-0.6,0.4c-2.7,1.7-5.3,3.5-8,5.2c-0.4,0.3-0.7,0.3-1.1,0C31.2,57.3,23.6,51.9,16,46.5 c-1-0.7-2-1.4-3-2.1c0,0.2,0,0.2,0,0.3c0,7.4,0,14.8,0,22.2c0,0.4,0.2,0.6,0.5,0.8c2.8,2,5.7,4,8.5,6c0.5,0.3,0.4,0.5,0,0.8 c-3.1,2-6.2,4.1-9.4,6.1c-0.6,0.4-1.1,0.7-1.7,1.1c-0.6,0.5-0.6,0.7,0,1.1c3,2.1,5.9,4.3,8.9,6.4c15.8,11.3,31.6,22.5,47.5,33.8 c0.1,0.1,0.2,0.3,0.4,0.1c0,0,0,0,0-0.1c0-7.2,0-14.3,0-21.5c0-0.4-0.2-0.5-0.4-0.7c-1.7-1.2-3.5-2.4-5.2-3.6 C52,90.2,41.9,83,31.8,75.8c-0.7-0.5-1.4-1-2.1-1.6c3.1-2.1,6.2-4,9.2-6C39.3,67.9,39.5,68.1,39.8,68.3z M38.5,44.9 c-7.5-5.3-15-10.6-22.5-16c-0.4-0.3-0.5-0.5-0.5-1c0-3.7,0-7.4,0-11.1c0-0.2,0-0.4,0-0.7C30.8,27,46,37.8,61.3,48.7 c-1.9,1.2-3.6,2.4-5.4,3.6c-1.1,0.7-2.1,1.4-3.2,2.1c-0.4,0.2-0.6,0.2-0.9,0C47.3,51.2,42.9,48.1,38.5,44.9z M49.2,61.4 c0.8-0.5,1.7-1.1,2.5-1.6c0.3-0.2,0.5-0.2,0.8,0c4.1,2.9,8.2,5.9,12.3,8.8c0.2,0.1,0.4,0.3,0.4,0.6c0,4.1,0,8.1,0,12.3 c-7.5-5.3-14.8-10.6-22.3-15.9C45,64.2,47.1,62.8,49.2,61.4z M64.7,104.1c0.2,0.2,0.4,0.3,0.4,0.7c0,3.9,0,7.7,0,11.6 c0,0,0,0.1-0.1,0.2c-15.9-11.4-31.9-22.7-47.9-34.2c1.4-0.9,2.7-1.8,4-2.6c1.5-1,3.1-2,4.6-3c0.3-0.2,0.5-0.2,0.7,0 C39.2,85.9,52,95,64.7,104.1z M26.5,71.5c-0.3,0.2-0.4,0.1-0.7-0.1c-3.3-2.4-6.7-4.8-10-7.1c-0.2-0.1-0.3-0.3-0.3-0.6 c0-4.2,0-8.4,0-12.7c6.8,4.8,13.5,9.6,20.3,14.4C32.6,67.5,29.5,69.5,26.5,71.5z"/>
    
    <g>
		<path  fill="#ffffff" d="M157.3,42.7V93h-7.9V62l-14.2,18.6h-2.7L118.3,62v31h-7.9V42.7h2.8l20.8,27.7l20.8-27.7H157.3z"/>	
		<path  fill="#ffffff" d="M199.8,60.9c3.8,3.7,5.7,8.2,5.7,13.6s-1.9,10-5.7,13.7c-3.8,3.7-8.4,5.6-13.8,5.6c-5.4,0-10-1.9-13.8-5.6 c-3.7-3.7-5.6-8.2-5.6-13.6s1.9-9.9,5.6-13.6c3.8-3.7,8.4-5.5,13.8-5.5C191.4,55.4,196,57.2,199.8,60.9z M177.9,66 c-2.2,2.3-3.3,5.1-3.3,8.6c0,3.4,1.1,6.2,3.2,8.5c2.2,2.3,4.9,3.4,8.2,3.4c3.2,0,6-1.1,8.2-3.4c2.2-2.3,3.3-5.1,3.3-8.5 c0-3.5-1.1-6.3-3.3-8.6c-2.2-2.3-4.9-3.4-8.1-3.5C182.8,62.6,180,63.8,177.9,66z"/>
		<path  fill="#ffffff" d="M250.5,36.8V93h-7.3v-5.2c-2.8,4-7.1,6.1-12.9,6.1c-5.2,0-9.5-1.8-12.9-5.5c-3.4-3.7-5.1-8.2-5.1-13.7s1.7-10.1,5.1-13.8 c3.4-3.7,7.7-5.5,12.9-5.5c5.3,0,9.4,1.8,12.3,5.3V36.8H250.5z M239.4,83.6c2.2-2,3.3-5,3.3-9c0-3.9-1.1-6.9-3.3-9 c-2.2-2.1-4.8-3.1-7.8-3.1c-3.2,0-5.9,1.1-8.1,3.4c-2.1,2.2-3.2,5.1-3.2,8.6c0,3.5,1.1,6.4,3.2,8.7c2.2,2.2,4.9,3.4,8.1,3.4 C234.6,86.6,237.3,85.6,239.4,83.6z"/>
		<path  fill="#ffffff" d="M295,77.2h-27.4c0.5,3,1.8,5.4,4,7.1c2.2,1.7,4.8,2.5,8,2.5c3.8,0,7.4-1.5,10.7-4.4l3.7,5.4c-4.2,3.9-9.1,5.9-14.7,5.9 c-5.7,0-10.4-1.8-14.2-5.5c-3.8-3.7-5.6-8.2-5.6-13.7c0-5.4,1.8-10,5.5-13.7c3.7-3.7,8.2-5.6,13.5-5.6c4.9,0,9,1.6,12.2,4.8 c3.2,3.2,4.8,7.2,4.8,12.1C295.6,73.8,295.4,75.4,295,77.2z M271.5,64.5c-1.9,1.6-3.2,3.8-3.8,6.6h20c0-2.8-1-4.9-2.8-6.6 s-4-2.4-6.7-2.4C275.7,62,273.5,62.8,271.5,64.5z"/>
		<path  fill="#ffffff" d="M325.7,56.2v7h-2.4c-3.1,0-5.7,0.9-7.7,2.7c-2,1.8-3.1,4.3-3.1,7.5V93h-7.9V56.2h7.3V61c2.6-3.5,6.2-5.2,10.7-5.2 C323.8,55.8,324.8,55.9,325.7,56.2z"/>
		<path  fill="#ffffff" d="M361.3,59.4c2.5,2.7,3.7,6.2,3.7,10.6v23h-7.9V71c0-2.6-0.7-4.6-2.2-6.2c-1.5-1.6-3.4-2.4-5.8-2.4c-2.4,0-4.5,0.8-6,2.4 c-1.6,1.6-2.4,3.7-2.4,6.2v22h-7.9V56.2h7.3v3.7c2.8-3,6.4-4.5,11-4.5C355.4,55.4,358.8,56.7,361.3,59.4z"/>
		<path  fill="#ffffff" d="M401,59.3c2.7,2.7,4.1,6.5,4.1,11.4V93h-7.3v-4.1c-2.8,3.3-6.7,5-11.8,5c-3.8,0-6.9-1-9.3-2.9c-2.3-2-3.5-4.5-3.5-7.7 c0-3.2,1.2-5.8,3.7-7.7c2.5-1.9,5.8-2.8,9.9-2.8h10.4v-2.4c0-2.6-0.7-4.5-2.1-5.9c-1.4-1.3-3.3-2-5.8-2c-3.7,0-7.1,1.8-10.2,5.5 l-4.6-4.6c3.7-5.2,8.9-7.9,15.5-7.9C394.6,55.4,398.3,56.7,401,59.3z M394.4,85.3c1.9-1.7,2.8-3.7,2.8-6.2v-0.7h-9.5 c-4.3,0-6.5,1.5-6.5,4.5c0,1.6,0.6,2.8,1.8,3.6c1.2,0.8,2.8,1.3,4.7,1.3C390.3,87.8,392.6,86.9,394.4,85.3z"/>
	
	</g>

</svg>

